<svg width="184" height="24" viewBox="0 0 184 24" fill="none" xmlns="http://www.w3.org/2000/svg">
<path d="M0.24375 9.99062C-0.165625 9.43437 -0.046875 8.65313 0.509375 8.24375L4.46562 5.32812C5.19375 4.79062 6.07812 4.5 6.98438 4.5H12H17C17.5531 4.5 18 4.94687 18 5.5V7.5C18 8.05313 17.5531 8.5 17 8.5H15.85L14.4469 9.625C13.7375 10.1938 12.8562 10.5 11.9469 10.5H9.5H9H7C6.44687 10.5 6 10.0531 6 9.5C6 8.94687 6.44687 8.5 7 8.5H9H9.5C9.775 8.5 10 8.275 10 8C10 7.725 9.775 7.5 9.5 7.5H5.73125L1.99063 10.2562C1.43438 10.6656 0.653125 10.5469 0.24375 9.99062ZM11.95 8.5H11.9781C11.9687 8.5 11.9594 8.5 11.95 8.5ZM17.7563 13.0094C18.1656 13.5656 18.0469 14.3469 17.4906 14.7563L13.5344 17.6719C12.8031 18.2094 11.9219 18.5 11.0125 18.5H6H1C0.446875 18.5 0 18.0531 0 17.5V15.5C0 14.9469 0.446875 14.5 1 14.5H2.15L3.55312 13.375C4.2625 12.8062 5.14375 12.5 6.05312 12.5H8.5H9H11C11.5531 12.5 12 12.9469 12 13.5C12 14.0531 11.5531 14.5 11 14.5H9H8.5C8.225 14.5 8 14.725 8 15C8 15.275 8.225 15.5 8.5 15.5H12.2688L16.0094 12.7437C16.5656 12.3344 17.3469 12.4531 17.7563 13.0094ZM6.05 14.5H6.02187C6.03125 14.5 6.04063 14.5 6.05 14.5Z" fill="black"/>
<path d="M35.458 5.236H38.077V18.25H35.458V5.236ZM44.2696 18.25V5.236H49.0576C50.0056 5.236 50.8546 5.401 51.6046 5.731C52.3546 6.055 52.9456 6.535 53.3776 7.171C53.8156 7.807 54.0346 8.584 54.0346 9.502C54.0346 10.366 53.8426 11.104 53.4586 11.716C53.0746 12.328 52.5346 12.796 51.8386 13.12C51.1486 13.444 50.3356 13.606 49.3996 13.606H46.9156V18.25H44.2696ZM46.8886 11.572H49.3276C49.9876 11.572 50.5276 11.362 50.9476 10.942C51.3676 10.516 51.5776 9.991 51.5776 9.367C51.5776 8.719 51.3556 8.206 50.9116 7.828C50.4676 7.444 49.9276 7.252 49.2916 7.252H46.8886V11.572ZM57.8627 18.43C57.2687 18.43 56.7347 18.319 56.2607 18.097C55.7867 17.875 55.4117 17.554 55.1357 17.134C54.8597 16.708 54.7217 16.192 54.7217 15.586C54.7217 14.566 55.1027 13.792 55.8647 13.264C56.6267 12.73 57.8297 12.454 59.4737 12.436L60.6347 12.418V11.86C60.6347 11.434 60.5087 11.107 60.2567 10.879C60.0107 10.645 59.6267 10.531 59.1047 10.537C58.7207 10.543 58.3547 10.633 58.0067 10.807C57.6647 10.981 57.4307 11.284 57.3047 11.716H55.1177C55.1537 11.044 55.3487 10.492 55.7027 10.06C56.0567 9.622 56.5367 9.298 57.1427 9.088C57.7547 8.872 58.4477 8.764 59.2217 8.764C60.1757 8.764 60.9407 8.884 61.5167 9.124C62.0927 9.358 62.5097 9.697 62.7677 10.141C63.0257 10.579 63.1547 11.101 63.1547 11.707V18.25H60.9587L60.7427 16.648C60.4247 17.32 60.0257 17.785 59.5457 18.043C59.0717 18.301 58.5107 18.43 57.8627 18.43ZM58.7447 16.702C58.9847 16.702 59.2157 16.66 59.4377 16.576C59.6657 16.486 59.8667 16.369 60.0407 16.225C60.2207 16.075 60.3647 15.907 60.4727 15.721C60.5807 15.535 60.6347 15.343 60.6347 15.145V13.768L59.6897 13.786C59.2517 13.792 58.8437 13.846 58.4657 13.948C58.0877 14.044 57.7817 14.203 57.5477 14.425C57.3197 14.647 57.2057 14.947 57.2057 15.325C57.2057 15.757 57.3557 16.096 57.6557 16.342C57.9557 16.582 58.3187 16.702 58.7447 16.702ZM67.857 8.944V18.25H65.346V8.944H67.857ZM67.884 5.245V7.612H65.328V5.245H67.884ZM73.4244 18.43C72.1764 18.43 71.2044 18.001 70.5084 17.143C69.8124 16.279 69.4644 15.079 69.4644 13.543C69.4644 12.571 69.6054 11.728 69.8874 11.014C70.1694 10.3 70.5864 9.748 71.1384 9.358C71.6904 8.962 72.3654 8.764 73.1634 8.764C73.4994 8.764 73.8114 8.803 74.0994 8.881C74.3934 8.953 74.6604 9.055 74.9004 9.187C75.1404 9.319 75.3504 9.472 75.5304 9.646C75.7104 9.82 75.8574 10.006 75.9714 10.204V4.876H78.6084V18.25H76.7004L76.4034 16.342C76.3194 16.6 76.2024 16.852 76.0524 17.098C75.9024 17.344 75.7104 17.569 75.4764 17.773C75.2424 17.971 74.9544 18.13 74.6124 18.25C74.2764 18.37 73.8804 18.43 73.4244 18.43ZM74.0004 16.54C74.6604 16.54 75.1524 16.309 75.4764 15.847C75.8064 15.385 75.9714 14.605 75.9714 13.507C75.9654 12.871 75.8904 12.343 75.7464 11.923C75.6024 11.503 75.3864 11.191 75.0984 10.987C74.8164 10.777 74.4564 10.672 74.0184 10.672C73.4484 10.672 72.9744 10.891 72.5964 11.329C72.2184 11.761 72.0294 12.487 72.0294 13.507C72.0294 14.545 72.2064 15.31 72.5604 15.802C72.9144 16.294 73.3944 16.54 74.0004 16.54ZM89.8203 8.944V10.771H87.8583V18.25H85.2303V10.771H83.5113V8.944H85.2303V7.603C85.2303 6.853 85.4493 6.271 85.8873 5.857C86.3313 5.443 86.9583 5.236 87.7683 5.236H89.9013L89.9103 6.982H88.6863C88.3503 6.982 88.1193 7.066 87.9933 7.234C87.8733 7.396 87.8133 7.666 87.8133 8.044V8.944H89.8203ZM95.0391 18.43C94.1271 18.43 93.3321 18.235 92.6541 17.845C91.9821 17.455 91.4601 16.903 91.0881 16.189C90.7221 15.475 90.5391 14.629 90.5391 13.651C90.5391 12.673 90.7221 11.818 91.0881 11.086C91.4601 10.354 91.9821 9.784 92.6541 9.376C93.3321 8.968 94.1301 8.764 95.0481 8.764C95.9661 8.764 96.7611 8.965 97.4331 9.367C98.1051 9.763 98.6241 10.327 98.9901 11.059C99.3561 11.791 99.5391 12.655 99.5391 13.651C99.5391 14.587 99.3591 15.415 98.9991 16.135C98.6451 16.849 98.1321 17.41 97.4601 17.818C96.7941 18.226 95.9871 18.43 95.0391 18.43ZM95.0481 16.477C95.5101 16.477 95.8821 16.342 96.1641 16.072C96.4461 15.802 96.6501 15.448 96.7761 15.01C96.9081 14.566 96.9741 14.083 96.9741 13.561C96.9741 13.069 96.9141 12.604 96.7941 12.166C96.6801 11.728 96.4821 11.374 96.2001 11.104C95.9181 10.834 95.5341 10.699 95.0481 10.699C94.5861 10.699 94.2111 10.828 93.9231 11.086C93.6411 11.338 93.4341 11.683 93.3021 12.121C93.1701 12.553 93.1041 13.033 93.1041 13.561C93.1041 14.047 93.1641 14.515 93.2841 14.965C93.4041 15.409 93.6051 15.772 93.8871 16.054C94.1691 16.336 94.5561 16.477 95.0481 16.477ZM101.021 18.25V8.944H103.55V11.149C103.7 10.675 103.91 10.261 104.18 9.907C104.456 9.547 104.789 9.268 105.179 9.07C105.569 8.866 106.01 8.764 106.502 8.764C106.586 8.764 106.664 8.77 106.736 8.782C106.814 8.788 106.871 8.8 106.907 8.818V11.32C106.853 11.296 106.787 11.281 106.709 11.275C106.637 11.269 106.571 11.263 106.511 11.257C105.995 11.215 105.554 11.23 105.188 11.302C104.822 11.374 104.525 11.497 104.297 11.671C104.069 11.845 103.904 12.058 103.802 12.31C103.7 12.562 103.649 12.844 103.649 13.156V18.25H101.021ZM122.327 5.236L117.8 12.778V18.25H115.172V12.769L110.654 5.236H113.498L116.495 10.51L119.456 5.236H122.327ZM125.635 18.43C124.723 18.43 123.928 18.235 123.25 17.845C122.578 17.455 122.056 16.903 121.684 16.189C121.318 15.475 121.135 14.629 121.135 13.651C121.135 12.673 121.318 11.818 121.684 11.086C122.056 10.354 122.578 9.784 123.25 9.376C123.928 8.968 124.726 8.764 125.644 8.764C126.562 8.764 127.357 8.965 128.029 9.367C128.701 9.763 129.22 10.327 129.586 11.059C129.952 11.791 130.135 12.655 130.135 13.651C130.135 14.587 129.955 15.415 129.595 16.135C129.241 16.849 128.728 17.41 128.056 17.818C127.39 18.226 126.583 18.43 125.635 18.43ZM125.644 16.477C126.106 16.477 126.478 16.342 126.76 16.072C127.042 15.802 127.246 15.448 127.372 15.01C127.504 14.566 127.57 14.083 127.57 13.561C127.57 13.069 127.51 12.604 127.39 12.166C127.276 11.728 127.078 11.374 126.796 11.104C126.514 10.834 126.13 10.699 125.644 10.699C125.182 10.699 124.807 10.828 124.519 11.086C124.237 11.338 124.03 11.683 123.898 12.121C123.766 12.553 123.7 13.033 123.7 13.561C123.7 14.047 123.76 14.515 123.88 14.965C124 15.409 124.201 15.772 124.483 16.054C124.765 16.336 125.152 16.477 125.644 16.477ZM134.94 18.43C134.508 18.43 134.082 18.364 133.662 18.232C133.248 18.1 132.87 17.905 132.528 17.647C132.186 17.389 131.91 17.071 131.7 16.693C131.496 16.315 131.394 15.877 131.394 15.379V8.944H134.022V15.046C134.022 15.478 134.163 15.832 134.445 16.108C134.727 16.384 135.141 16.522 135.687 16.522C136.203 16.522 136.611 16.39 136.911 16.126C137.217 15.856 137.37 15.481 137.37 15.001V8.944H139.971V18.25H137.991L137.685 16.405C137.577 16.951 137.373 17.371 137.073 17.665C136.779 17.953 136.44 18.151 136.056 18.259C135.678 18.373 135.306 18.43 134.94 18.43Z" fill="#0D1C0D"/>
</svg>
